<svg version="1.1" xmlns="http://www.w3.org/2000/svg" style="display: block;" viewBox="0 0 2048 2048" width="640" height="640">
<path transform="translate(0,0)" fill="rgb(0,0,0)" fill-opacity="0.976471" d="M 1436.15 999.467 C 1436.09 979.968 1433.31 947.924 1446.19 931.797 C 1447.74 939.514 1442.57 950.99 1441.31 959.075 C 1439.96 967.74 1440.98 991.984 1437.06 998.171 C 1436.78 998.618 1436.45 999.035 1436.15 999.467 z"/>
<path transform="translate(0,0)" fill="rgb(0,0,0)" d="M 1427.74 726.697 C 1429.2 727 1430.64 727.291 1431.85 728.262 C 1439.93 734.728 1444.9 763.586 1447.01 773.441 C 1441.87 782.78 1435.46 787.875 1426.55 793.291 C 1426.11 793.276 1425.67 793.293 1425.23 793.245 C 1422.46 792.941 1420.68 791.429 1418.97 789.351 C 1412.17 781.122 1406.49 763.538 1407.76 752.932 C 1409 742.583 1420.06 732.997 1427.74 726.697 z"/>
<path transform="translate(0,0)" fill="rgb(0,0,0)" d="M 1405 704.681 C 1407.83 705.251 1407.84 705.121 1409.6 707.383 C 1409.92 709.79 1409.99 711.518 1408.92 713.772 C 1400.4 731.772 1319.41 797.517 1300.49 810.013 C 1296.47 812.666 1292.74 814.492 1288.12 815.955 C 1285.94 815.291 1285 814.198 1283.45 812.576 C 1282.56 809.596 1282.6 809.147 1283.39 806.131 C 1301.68 787.821 1323.8 774.208 1343.66 757.768 C 1360.46 743.851 1388.27 713.232 1405 704.681 z"/>
<path transform="translate(0,0)" fill="rgb(0,0,0)" d="M 717.32 1285.04 C 720.951 1284.84 724.567 1284.99 727.924 1286.51 C 738.842 1291.48 742.77 1306.93 746.762 1317.3 C 752.689 1309.03 762.12 1289.43 773.205 1287.79 C 775.788 1287.41 778.132 1287.77 780.235 1289.42 C 783.268 1291.8 784.952 1295.96 785.432 1299.69 C 785.959 1303.78 785.634 1310.46 782.34 1313.48 C 780.688 1314.99 778.788 1315.38 776.65 1314.77 C 773.047 1313.73 770.518 1309.28 768.431 1306.36 C 757.311 1320.92 752.824 1336.92 749.363 1354.76 C 748.033 1360.76 749.02 1367.46 749.212 1373.54 C 749.371 1378.58 749.453 1384.73 745.161 1388.25 C 742.937 1390.07 741.857 1390 739.217 1389.8 C 733.334 1385.42 734.794 1343.75 733.44 1334 C 731.793 1322.15 728.716 1310.4 722.55 1300.07 C 718.724 1305.65 715.46 1311.53 709.138 1314.56 C 706.063 1316.03 703.934 1316.08 700.655 1314.99 C 699.141 1313.76 698.144 1312.92 697.457 1311 C 696.199 1307.49 696.74 1303.38 698.186 1300.01 C 701.847 1291.49 709.21 1288.16 717.32 1285.04 z"/>
<path transform="translate(0,0)" fill="rgb(0,0,0)" d="M 1469.68 1122.06 C 1473.65 1122.48 1476.22 1123.25 1478.89 1126.33 C 1481.61 1129.47 1484.7 1133.19 1484.47 1137.55 C 1479.72 1147.08 1466.34 1142.19 1458.31 1146.07 C 1436.37 1156.67 1446.3 1214.76 1440.13 1226.61 C 1438.89 1229 1437.96 1229.58 1435.31 1230.07 C 1432.92 1230.52 1429.8 1230.42 1427.75 1229.06 C 1422.71 1220.52 1421.5 1190.36 1420.09 1179.24 C 1419.39 1173.92 1418.8 1168.24 1417.02 1163.16 C 1412.64 1150.64 1402.57 1161.53 1394.14 1157.87 C 1389.4 1152.48 1390.03 1145.35 1389.64 1138.54 C 1393.09 1135.43 1396.84 1132.13 1401.05 1130.1 C 1405.19 1128.1 1409.97 1127.42 1414.35 1129.04 C 1425.93 1133.34 1431.73 1149.58 1436.51 1160.05 C 1445.69 1145.62 1453.69 1129.85 1469.68 1122.06 z"/>
<path transform="translate(0,0)" fill="rgb(0,0,0)" d="M 1459.64 794.571 C 1466.15 797.626 1471.05 805.78 1473.76 812.252 C 1477.06 820.133 1479.8 829.749 1476.26 837.974 C 1474.18 842.804 1470.29 847.359 1465.23 849.16 C 1453.79 853.238 1447.01 842.315 1438.03 837.975 C 1430.33 837.989 1425.1 851.219 1418.52 855.445 C 1413.29 858.797 1406.99 860.491 1400.92 859.146 C 1396.58 853.11 1387.07 841.875 1387.93 834.134 C 1388.96 825.006 1397.16 809.949 1405.05 804.721 C 1407.15 803.334 1408.36 802.956 1410.82 803.295 C 1417.86 807.251 1422.74 820.225 1427.23 827.125 C 1440.52 819.086 1447.33 804.1 1459.64 794.571 z"/>
<path transform="translate(0,0)" fill="rgb(0,0,0)" d="M 716.164 848.559 C 718.089 849.007 719.986 849.67 721.486 851.025 C 725.27 854.446 725.851 863.545 728.34 868.341 C 733.421 878.129 754.443 898.315 753.441 907.677 C 752.482 916.638 742.305 923.928 735.784 929.148 C 729.988 930.012 723.958 930.226 718.111 930.672 C 725.745 939.543 733.779 948.498 742.413 956.404 C 749.324 962.733 756.768 968.279 763.501 974.848 C 760.389 978.546 756.995 982.028 753.7 985.564 C 746.866 991.468 740.931 994.015 732.515 996.798 C 719.976 989.612 704.675 978.365 700.923 963.696 C 696.715 947.244 705.719 930.144 713.651 916.3 C 703.044 904.887 699.079 893.586 695.981 878.643 C 700.528 866.654 706.95 857.419 716.164 848.559 z"/>
<path transform="translate(0,0)" fill="rgb(0,0,0)" d="M 1081.59 859.126 C 1104.82 846.209 1129.03 824.931 1148.45 806.647 C 1157.92 797.736 1167.66 786.793 1178.49 779.615 C 1181.24 777.793 1183.56 776.86 1186.91 777.461 C 1188.4 779.224 1188.91 779.726 1188.39 782.233 C 1184.72 799.776 1108.57 855.229 1091.25 869.85 C 1091.8 884.653 1088.61 898.787 1080.66 911.389 C 1073.78 922.286 1062.16 930.021 1053.45 939.447 C 1015.48 980.555 957.324 1032.32 933.742 1082.45 C 924.638 1101.8 921.281 1123.03 918.251 1144.01 C 928.57 1139.74 940.254 1136.69 949.787 1130.87 C 958.285 1125.69 964.823 1117.45 973.018 1111.75 C 982.954 1104.83 993.602 1098.93 1003.46 1091.9 C 1011.99 1085.83 1019.47 1078.37 1027.71 1071.94 C 1045.99 1057.67 1064.86 1044.34 1082.84 1029.62 C 1096.95 1018.07 1109.76 1004.69 1124.89 994.445 C 1153.27 975.213 1206.49 976.773 1237.77 988.774 C 1253.93 994.972 1269.86 1005.63 1286.95 1008.64 C 1299.57 1010.87 1307.69 1005.48 1317.58 998.646 C 1320.74 979.573 1318.43 963.803 1315.84 944.872 C 1314.76 936.939 1313.2 928.434 1314.23 920.421 C 1316.22 905.094 1330.04 880.128 1342.82 870.905 C 1345.05 869.295 1346.2 868.95 1348.88 869.3 C 1352.59 874.696 1347.3 888.926 1346.14 895.457 C 1342.4 916.413 1351.76 946.626 1351.04 969.225 C 1350.24 994.082 1338.9 1007.65 1318.34 1019.52 C 1312.36 1022.98 1305.99 1025.88 1300.95 1030.68 C 1300.69 1030.92 1300.44 1031.18 1300.19 1031.43 C 1307.01 1046.93 1318.06 1062.66 1327.28 1076.92 C 1336.6 1073.53 1346.06 1070.08 1353.89 1063.81 C 1377.92 1044.57 1376.7 1002.05 1380.44 974.093 C 1381.56 965.723 1382.73 955.325 1388.07 948.5 C 1390.03 945.983 1392.26 943.985 1395.54 943.707 C 1402.02 948.099 1398.54 978.928 1399.33 987.501 C 1400.08 995.608 1402.06 1004.01 1405.58 1011.38 C 1407.77 1015.98 1410.95 1020.5 1416.09 1021.94 C 1419.29 1022.84 1422.76 1021.8 1425.42 1019.97 C 1432.65 1015 1434.37 1007.49 1436.15 999.467 C 1436.45 999.035 1436.78 998.618 1437.06 998.171 C 1440.98 991.984 1439.96 967.74 1441.31 959.075 C 1442.57 950.99 1447.74 939.514 1446.19 931.797 C 1448.59 930.491 1449.88 929.66 1452.7 929.758 C 1454.46 930.945 1455.02 931.123 1455.51 933.321 C 1456.84 939.314 1454.15 948.92 1453.66 955.114 C 1452.97 963.908 1452.6 988.683 1460.27 994.115 C 1462.45 995.656 1464.18 995.374 1466.66 994.958 C 1477.95 980.372 1475.98 919.759 1492.05 914.473 C 1494.37 916.351 1494.94 918.511 1495.3 921.453 C 1496.56 931.916 1493.82 943.465 1493.42 954.024 C 1492.96 966.465 1495.44 981.833 1492 993.803 C 1490.16 1000.2 1485.8 1006.64 1481.53 1011.72 C 1477.14 1016.94 1470.6 1024.94 1463.35 1025.49 C 1458.07 1025.89 1453.87 1022.35 1449.86 1019.42 C 1436.43 1037.56 1427.63 1053.03 1403.09 1056.5 A 118.965 118.965 0 0 1 1380.87 1057.42 C 1377.24 1065.75 1372.75 1074.91 1366.73 1081.79 C 1360.88 1089.02 1354.68 1094.42 1347.06 1099.71 L 1338.61 1104.66 C 1349.63 1135.8 1353.64 1183.56 1344.6 1215.55 C 1332.83 1257.15 1313.79 1283.93 1282.91 1313.53 C 1273.53 1322.52 1263.93 1331.63 1253.36 1339.23 C 1243.93 1346.01 1233.38 1351.15 1223.77 1357.66 C 1211.2 1366.17 1199.89 1375.78 1186.5 1383.17 C 1139.51 1409.11 1078.75 1416.03 1027.37 1400.84 C 984.148 1388.07 935.966 1355.62 913.902 1315.19 C 895.171 1317.62 877.308 1317.13 859.924 1309.18 C 836.018 1298.24 806.911 1274.74 797.483 1249.52 C 813.9 1251.98 828.992 1259.08 845.077 1262.78 C 859.034 1265.98 873.052 1265.05 887.229 1264.48 C 885.523 1247.09 881.348 1229.35 878.636 1212.03 C 859.865 1209.95 826.946 1214.03 811.993 1199.41 C 808.297 1195.79 805.755 1191.13 803.376 1186.6 C 801.204 1182.47 798.001 1174.04 793.933 1171.6 C 788.333 1177.67 784.064 1186.17 779.502 1193.09 C 767.031 1212.02 753.037 1229.62 734.923 1243.45 C 719.749 1255.04 701.121 1261.82 681.858 1258.91 C 650.96 1254.24 641.839 1224.36 625.897 1202.37 C 624.773 1192.03 624.744 1181.04 626.32 1170.76 C 630.707 1142.1 654.502 1119.17 678.577 1105.1 C 685.901 1100.82 694.219 1098.19 701.366 1093.66 C 706.774 1090.23 711.406 1085.41 716.599 1081.63 C 719.699 1079.38 723.83 1076.01 727.763 1076.65 L 728.127 1078.27 C 722.002 1090.37 701.383 1104.3 690.654 1112.89 C 686.536 1126.6 677.269 1137.35 671.924 1150.4 C 667.525 1161.14 666.664 1171.51 671.546 1182.29 A 41.5314 41.5314 0 0 0 696.356 1204.55 C 709.857 1209.11 727.527 1210.25 740.431 1203.66 C 778.154 1184.38 791.48 1127.09 794.542 1088.65 C 796.186 1068.01 794.657 1046.69 797.86 1026.24 C 799.447 1016.11 803.798 1009.14 807.219 999.81 C 809.278 994.195 810.481 988.264 812.354 982.586 C 813.804 978.189 815.244 973.42 819.558 971.238 L 820.742 972.633 C 822.072 987.046 820.254 999.216 818.229 1013.46 C 816.537 1025.36 817.852 1038.17 817.899 1050.18 C 817.984 1072.29 815.954 1097.21 820.476 1118.91 C 822.349 1127.9 825.818 1136.71 831.511 1143.99 C 842.48 1158 856.55 1160.65 873.079 1162.91 L 882.567 1159.01 C 894.66 1115.28 905.738 1089.84 932.214 1052.36 C 941.278 1039.53 950.275 1027.23 960.77 1015.53 C 972.914 1001.98 992.191 986.878 999.235 969.963 C 1004.56 957.178 1002.94 940.503 997.762 927.834 C 988.066 904.101 965.668 892.579 941.322 890.144 C 934.06 889.418 924.189 889.926 917.528 887.012 C 916.884 884.666 917.255 883.38 918.153 881.186 C 922.924 869.519 936.886 862.494 947.961 857.965 C 975.51 846.699 1017.27 839.292 1046.64 845.971 C 1058.61 848.694 1070.28 854.42 1081.59 859.126 z M 961.256 1282.7 C 1008.59 1339.44 1065.41 1360.96 1137.4 1367.65 C 1179.06 1371.53 1211.48 1354.77 1242.73 1328.74 C 1278.48 1298.97 1292.9 1243.86 1296.72 1198.97 C 1298.54 1177.67 1292.33 1158.53 1291.06 1137.68 C 1284.89 1138.92 1278.71 1140.35 1272.45 1141.03 C 1264.66 1143.02 1255.64 1142.9 1247.88 1141.01 L 1246.46 1140.76 C 1212.13 1134.56 1194.08 1109.01 1155.99 1122.15 C 1146.53 1125.41 1137.3 1129.65 1129.03 1135.33 C 1117.69 1143.13 1107.96 1154.27 1097.42 1163.2 C 1069.52 1186.82 1043.33 1211.98 1016.12 1236.31 C 998.23 1252.3 979.711 1267.38 961.256 1282.7 z M 1141.6 1032.17 C 1094.94 1042.38 1076.82 1052.78 1040.92 1083.01 C 1028.5 1093.48 1016.12 1104.16 1005.07 1116.1 C 992.378 1129.82 981.61 1144.83 967.734 1157.52 C 956.273 1168 924.134 1188.12 917.653 1197.56 C 914.333 1202.4 915.61 1209.15 916.884 1214.44 C 920.109 1227.84 924.23 1240.23 934.967 1249.33 C 953.541 1245.06 985.148 1222.07 1000.64 1209.81 C 1017.83 1196.79 1033.79 1182.91 1050.46 1169.3 C 1069.35 1153.88 1088.86 1139.16 1107.63 1123.56 C 1122.5 1111.19 1135.94 1095.75 1153.19 1086.65 C 1175.03 1075.11 1198.94 1070.02 1223.42 1073.44 C 1234.42 1074.98 1245.16 1077.32 1256.28 1078.06 L 1258.66 1078.23 C 1241.67 1054.07 1214.41 1039.04 1185.52 1034.03 A 173.164 173.164 0 0 0 1141.6 1032.17 z M 1347.06 1099.71 C 1354.68 1094.42 1360.88 1089.02 1366.73 1081.79 L 1366.3 1078.29 C 1362.42 1079.49 1358.97 1084.04 1356.27 1087 C 1352.39 1091.23 1348.27 1093.77 1347.06 1099.71 z M 1247.88 1141.01 C 1255.64 1142.9 1264.66 1143.02 1272.45 1141.03 C 1269.2 1140.87 1267.53 1141.12 1264.72 1139.37 L 1267.17 1139.65 C 1266.08 1139.12 1265.03 1138.61 1263.88 1138.24 C 1259.9 1136.98 1255.56 1136.82 1251.79 1138.82 L 1252.37 1139.89 L 1254.51 1140.36 L 1247.88 1141.01 z"/>
<path transform="translate(0,0)" fill="rgb(0,0,0)" fill-opacity="0.980392" d="M 1247.88 1141.01 L 1254.51 1140.36 L 1252.37 1139.89 L 1251.79 1138.82 C 1255.56 1136.82 1259.9 1136.98 1263.88 1138.24 C 1265.03 1138.61 1266.08 1139.12 1267.17 1139.65 L 1264.72 1139.37 C 1267.53 1141.12 1269.2 1140.87 1272.45 1141.03 C 1264.66 1143.02 1255.64 1142.9 1247.88 1141.01 z"/>
<path transform="translate(0,0)" fill="rgb(0,0,0)" fill-opacity="0.972549" d="M 1347.06 1099.71 C 1348.27 1093.77 1352.39 1091.23 1356.27 1087 C 1358.97 1084.04 1362.42 1079.49 1366.3 1078.29 L 1366.73 1081.79 C 1360.88 1089.02 1354.68 1094.42 1347.06 1099.71 z"/>
<path transform="translate(0,0)" fill="rgb(0,0,0)" d="M 1099.36 1215.79 C 1101.07 1216.51 1102.04 1217.15 1103.35 1218.46 C 1104.11 1220.92 1104.14 1222.38 1103.28 1224.76 C 1097.09 1241.89 1041.79 1296.31 1025.37 1303.88 C 1024.68 1303.43 1023.94 1303 1023.36 1302.4 C 1021.56 1300.54 1020.53 1298.98 1020.95 1296.31 C 1021.58 1292.28 1027.39 1286.71 1030.13 1283.75 C 1041.67 1271.3 1054.83 1260.41 1066.88 1248.45 C 1077.75 1237.66 1087.17 1225.16 1099.36 1215.79 z"/>
<path transform="translate(0,0)" fill="rgb(0,0,0)" d="M 1165.55 1177.82 L 1167.79 1178.3 C 1175.42 1184.54 1182.56 1196.67 1185.92 1205.92 C 1192.8 1224.9 1171.7 1235.94 1164.64 1251.51 L 1164.02 1252.89 C 1170.29 1262.82 1178.52 1271.29 1184.79 1281.23 C 1179.88 1294 1175.69 1298.3 1163.56 1304.21 C 1161.55 1304.05 1159.84 1303.82 1157.97 1303.02 C 1149.72 1299.51 1139.96 1290.63 1136.9 1282.05 C 1131.15 1265.93 1151.37 1247.91 1158.17 1234.27 L 1158.95 1232.68 C 1154.9 1223.07 1149.17 1213.29 1143.6 1204.47 C 1147.98 1193.18 1155.18 1184.18 1165.55 1177.82 z"/>
</svg>